<?xml version="1.0" encoding="UTF-8" standalone="no"?>
<svg
   xmlns:dc="http://purl.org/dc/elements/1.1/"
   xmlns:cc="http://creativecommons.org/ns#"
   xmlns:rdf="http://www.w3.org/1999/02/22-rdf-syntax-ns#"
   xmlns:svg="http://www.w3.org/2000/svg"
   xmlns="http://www.w3.org/2000/svg"
   width="2000"
   height="1095.4561"
   viewBox="0 0 2000 1095.456"
   fill="none"
   version="1.1"
   id="svg12">
  <metadata
     id="metadata18">
    <rdf:RDF>
      <cc:Work
         rdf:about="">
        <dc:format>image/svg+xml</dc:format>
        <dc:type
           rdf:resource="http://purl.org/dc/dcmitype/StillImage" />
        <dc:title></dc:title>
      </cc:Work>
    </rdf:RDF>
  </metadata>
  <defs
     id="defs16" />
  <path
     d="m 5.5067222,666.76567 c 0,-82.96389 0,-165.92778 0,-248.89167 97.5974478,0 195.1952178,0.50833 292.2932778,-0.50833 17.01667,0 22.52222,4.07222 22.52222,22.39444 -1.00278,68.71389 -1.00278,137.425 0,206.13611 0,15.26945 -2.00278,22.39722 -20.02222,21.88889 -98.09667,-1.52778 -196.19472,-1.01944 -294.7932778,-1.01944 z M 1101.1,673.37956 c -59.0583,0 -118.11944,0 -177.17778,0 -71.57222,0 -129.63055,-54.96945 -132.13055,-124.7 -2.50278,-73.29445 47.54722,-135.38889 121.11944,-137.425 124.62499,-3.56389 249.74999,-1.01667 374.87499,-1.01667 10.5111,0 21.0222,2.54444 31.5306,6.10555 63.0639,21.88612 97.6,80.92778 87.0889,150.15 -9.0084,59.55 -63.5639,106.37778 -125.125,106.88612 -60.0612,0.50833 -120.1223,0 -180.1806,0 z M 2000,462.66289 c -126.6278,0 -247.2472,0 -367.8667,0 -12.0139,0 -18.0194,-8.14445 -24.525,-14.76111 C 1554.0528,393.44067 1500,338.98233 1446.9472,284.01011 c -12.0111,-12.72222 -24.525,-17.30555 -41.5416,-17.30555 -103.6028,0.51111 -206.7056,0 -310.3112,0.51111 -18.5166,0 -26.025,-3.56389 -25.525,-24.94084 1.5028,-72.78444 1,-146.077497 0,-218.861663 C 1069.5694,6.1077778 1073.5722,0 1091.5917,0 c 147.6472,0.509 295.2944,0.509 442.9416,0 11.5139,0 20.5223,3.0538889 28.5306,11.197583 141.6417,146.586417 283.7833,291.645857 425.925,437.215307 2.5028,3.05278 5.0055,6.61667 11.0111,14.25 z M 989.98889,134.86567 c 0,37.15555 -1,74.82 0.50278,111.97555 0.5,18.32445 -5.00556,23.92167 -22.525,22.39389 -56.55556,-4.58055 -111.11111,2.03611 -162.66111,29.01389 -100.1,51.91667 -161.66112,165.92778 -149.65,279.43056 12.51388,115.53888 96.59722,213.77222 206.70555,241.76388 33.53611,8.65278 67.56945,11.70834 101.60278,7.63612 18.01944,-2.03612 27.02778,0.50833 26.52778,22.90277 -1.50278,74.82223 -0.50278,149.13334 -0.50278,223.95277 0,12.725 -1,19.3417 -17.01667,20.3583 C 741.24167,1109.0546 532.53333,982.31844 437.93889,768.03789 297.29722,447.37956 494.49444,70.734 835.33611,9.6563611 880.88056,1.5126667 926.42778,1.0036944 972.47222,1.0036944 c 14.51389,0 18.01945,5.5987778 18.01945,19.3411386 -1.00278,38.173611 -0.50278,76.347223 -0.50278,114.520837 z M 0,417.874 c 2.0019944,0 4.004,0 5.5054722,0.50833 8.0079998,9.16111 7.0069998,20.35834 7.5074998,31.04723 0,62.09722 0,124.19166 0,186.79722 0,10.68889 0.5005,21.88611 -7.5074998,31.04722 C 3.5035,667.274 2.0019944,667.274 0,667.78233 0,583.80178 0,500.83789 0,417.874 Z"
     style="fill:#000000" />
</svg>
