<?xml version="1.0" encoding="UTF-8" standalone="no"?>
<svg
   xmlns:dc="http://purl.org/dc/elements/1.1/"
   xmlns:cc="http://creativecommons.org/ns#"
   xmlns:rdf="http://www.w3.org/1999/02/22-rdf-syntax-ns#"
   xmlns:svg="http://www.w3.org/2000/svg"
   xmlns="http://www.w3.org/2000/svg"
   width="132"
   height="132"
   viewBox="0 0 132 132"
   version="1.1"
   id="svg8">
  <defs
     id="defs2">
    <clipPath
       id="clip0">
      <rect
         width="96"
         height="96"
         fill="#ffffff"
         transform="translate(10,22)"
         id="rect94"
         x="0"
         y="0" />
    </clipPath>
  </defs>
  <metadata
     id="metadata5">
    <rdf:RDF>
      <cc:Work
         rdf:about="">
        <dc:format>image/svg+xml</dc:format>
        <dc:type
           rdf:resource="http://purl.org/dc/dcmitype/StillImage" />
        <dc:title></dc:title>
      </cc:Work>
    </rdf:RDF>
  </metadata>
  <g
     id="layer1"
     transform="translate(0,-32.416659)">
    <g
       id="g125"
       transform="translate(-885.5,42.416839)">
      <rect
         x="975"
         width="40"
         height="40"
         fill="#cde8fb"
         id="rect4"
         y="0" />
      <rect
         x="888"
         y="73"
         width="16"
         height="16"
         fill="#cde8fb"
         id="rect8" />
      <path
         d="m 937.151,21.6873 -5.529,13.4839 -17.046,-17.0456 c 7.298,-3.735 16.465,-2.5478 22.575,3.5617 z"
         fill="#2372a1"
         id="path62" />
      <path
         d="m 923.418,35.4181 20.38,28.3342 12.427,-12.4269 -13.533,-13.5326 c 0.704,-5.7289 -1.144,-11.7084 -5.542,-16.106 z"
         fill="#5bb3e7"
         id="path64" />
      <path
         d="m 923.418,35.4183 24.357,24.3568 -8.451,8.4508 -13.532,-13.5326 c -5.728,0.7028 -11.707,-1.1454 -16.105,-5.5432 -6.11,-6.1097 -7.296,-15.2751 -3.561,-22.5737 l 13.067,13.0672 z"
         fill="#2372a1"
         id="path66" />
      <path
         d="m 966.85,106.312 5.529,-13.4834 17.045,17.0454 c -7.298,3.735 -16.465,2.548 -22.574,-3.562 z"
         fill="#5bb3e7"
         id="path68" />
      <path
         d="m 980.582,92.5815 -20.38,-28.3342 -12.427,12.4269 13.533,13.5326 c -0.704,5.7289 1.144,11.7082 5.542,16.1062 z"
         fill="#2372a1"
         id="path70" />
      <path
         d="m 980.582,92.5815 -24.357,-24.3568 8.451,-8.4508 13.532,13.5326 c 5.728,-0.7027 11.707,1.1455 16.105,5.5433 6.107,6.1093 7.297,15.2748 3.561,22.5732 L 984.807,88.356 Z"
         fill="#5bb3e7"
         id="path72" />
      <path
         d="m 995.272,20.7283 2.112,2.1125 c 3.486,3.4856 3.486,9.1896 0,12.6752 l -5.129,5.1292 -13.753,-8.45 z"
         fill="#2372a1"
         id="path74" />
      <path
         d="m 993.159,18.6158 2.112,2.1126 -14.118,14.1185 -5.799,-11.1018 5.13,-5.1293 c 3.485,-3.4858 9.189,-3.4858 12.675,0 z"
         fill="#2372a1"
         id="path76" />
      <path
         d="m 983.805,32.1948 8.45,8.4503 -8.45,8.45 -13.753,-8.45 z"
         fill="#5bb3e7"
         id="path78" />
      <path
         d="m 975.355,23.7449 8.45,8.4502 -11.102,11.1017 -5.798,-11.1017 z"
         fill="#5bb3e7"
         id="path80" />
      <path
         d="m 911.755,101.594 1.856,7.159 -8.485,2.122 z"
         fill="#2372a1"
         id="path82" />
      <path
         d="m 907.247,102.389 3.182,3.182 -5.303,5.304 z"
         fill="#2372a1"
         id="path84" />
      <path
         d="m 920.536,92.813 7.124,12.427 -14.049,3.513 -3.182,-3.182 z"
         fill="#288bc6"
         id="path86" />
      <path
         d="m 910.759,88.3398 8.451,8.4508 -8.781,8.7804 -3.182,-3.181 z"
         fill="#5bb3e7"
         id="path88" />
      <path
         d="m 975.354,40.6453 8.451,8.4502 -56.146,56.1455 -8.45,-8.4503 24.095,-32.05 z"
         fill="#288bc6"
         id="path90" />
      <path
         d="m 975.354,40.6443 -8.45,-8.45 -56.145,56.1449 8.45,8.4499 z"
         fill="#2b9add"
         id="path92" />
    </g>
  </g>
</svg>
