<?xml version="1.0" encoding="UTF-8" standalone="no"?>
<svg
   xmlns:dc="http://purl.org/dc/elements/1.1/"
   xmlns:cc="http://creativecommons.org/ns#"
   xmlns:rdf="http://www.w3.org/1999/02/22-rdf-syntax-ns#"
   xmlns:svg="http://www.w3.org/2000/svg"
   xmlns="http://www.w3.org/2000/svg"
   width="132"
   height="132"
   viewBox="0 0 132 132"
   version="1.1"
   id="svg8">
  <defs
     id="defs2">
    <clipPath
       id="clip0">
      <rect
         width="96"
         height="96"
         fill="#ffffff"
         transform="translate(10,22)"
         id="rect94"
         x="0"
         y="0" />
    </clipPath>
  </defs>
  <metadata
     id="metadata5">
    <rdf:RDF>
      <cc:Work
         rdf:about="">
        <dc:format>image/svg+xml</dc:format>
        <dc:type
           rdf:resource="http://purl.org/dc/dcmitype/StillImage" />
        <dc:title></dc:title>
      </cc:Work>
    </rdf:RDF>
  </metadata>
  <g
     id="layer1"
     transform="translate(0,-32.416659)">
    <g
       id="g157"
       transform="translate(13,23.416659)">
      <rect
         x="58"
         y="101"
         width="40"
         height="40"
         fill="#cde8fb"
         id="rect10" />
      <rect
         y="9"
         width="16"
         height="16"
         fill="#cde8fb"
         id="rect12"
         x="0" />
      <g
         clip-path="url(#clip0)"
         id="g42">
        <path
           d="m 49.5625,22 c -0.9662,-0.0017 -1.8718,0.1714 -2.8125,0.2471 -15.5509,1.2537 -27.4778,12.7354 -30.2481,26.598 -1.0657,5.3367 -0.9063,10.6129 0.4725,15.705 L 10,76.2231 21.4375,84.3723 V 100.75 h 11.25 V 118 H 46.75 72.0625 v -11.853 c 0,-11.5219 2.8097,-23.7249 8.5886,-37.3041 1.7661,-4.1501 2.6614,-8.5556 2.6614,-13.0929 0,-18.5085 -14.9252,-33.7146 -33.75,-33.75 z"
           fill="#e3b240"
           id="path14" />
        <path
           d="m 72.0625,106.147 c 0,-11.5219 2.8097,-23.7249 8.5886,-37.3041 1.7661,-4.1501 2.6614,-8.5556 2.6614,-13.0929 0,-18.5085 -14.9252,-33.7146 -33.75,-33.75 -0.9662,-0.0017 -1.8718,0.1714 -2.8125,0.2471 V 118 h 25.3125 z"
           fill="#d18e2c"
           id="path16" />
        <path
           d="m 58,55.75 h 33.9375 v 5.625 H 58 Z"
           fill="#e3b240"
           id="path18" />
        <path
           d="m 97.5625,67 c -4.6526,0 -8.4375,-3.7849 -8.4375,-8.4375 0,-4.6526 3.7849,-8.4375 8.4375,-8.4375 4.6525,0 8.4375,3.7849 8.4375,8.4375 C 106,63.2151 102.215,67 97.5625,67 Z"
           fill="#d18e2c"
           id="path20" />
        <path
           d="M 91.597,79.0741 85.1479,72.625 H 46.75 V 67 h 40.7271 l 8.097,8.097 z"
           fill="#e3b240"
           id="path22" />
        <path
           d="m 97.5625,89.5 c -4.6526,0 -8.4375,-3.7849 -8.4375,-8.4375 0,-4.6526 3.7849,-8.4375 8.4375,-8.4375 4.6525,0 8.4375,3.7849 8.4375,8.4375 0,4.6526 -3.785,8.4375 -8.4375,8.4375 z"
           fill="#d18e2c"
           id="path24" />
        <path
           d="M 87.4771,50.1249 H 46.75 v -5.625 h 38.3979 l 6.4491,-6.4489 3.9771,3.9769 z"
           fill="#e3b240"
           id="path26" />
        <path
           d="m 97.5625,44.5 c -4.6526,0 -8.4375,-3.7849 -8.4375,-8.4375 0,-4.6526 3.7849,-8.4375 8.4375,-8.4375 4.6525,0 8.4375,3.7849 8.4375,8.4375 0,4.6526 -3.785,8.4375 -8.4375,8.4375 z"
           fill="#d18e2c"
           id="path28" />
        <path
           d="m 46.75,72.625 c 7.7665,0 14.0625,-6.296 14.0625,-14.0625 C 60.8125,50.796 54.5165,44.5 46.75,44.5 c -7.7665,0 -14.0625,6.296 -14.0625,14.0625 0,7.7665 6.296,14.0625 14.0625,14.0625 z"
           fill="#e6f7ff"
           id="path30" />
        <path
           d="M 60.8125,58.5625 C 60.8125,50.8088 54.5037,44.5 46.75,44.5 v 28.125 c 7.7537,0 14.0625,-6.3088 14.0625,-14.0625 z"
           fill="#e3b240"
           id="path32" />
        <path
           d="m 46.75,67 c 4.6599,0 8.4375,-3.7776 8.4375,-8.4375 0,-4.6599 -3.7776,-8.4375 -8.4375,-8.4375 -4.6599,0 -8.4375,3.7776 -8.4375,8.4375 0,4.6599 3.7776,8.4375 8.4375,8.4375 z"
           fill="#e3b240"
           id="path34" />
        <path
           d="m 55.1875,58.5625 c 0,-4.6524 -3.7851,-8.4375 -8.4375,-8.4375 V 67 c 4.6526,0 8.4375,-3.7851 8.4375,-8.4375 z"
           fill="#d18e2c"
           id="path36" />
        <path
           d="m 46.75,55.75 h -2.8125 v 5.625 H 46.75 49.5625 V 55.75 Z"
           fill="#e6f7ff"
           id="path38" />
        <path
           d="m 46.75,55.75 h 2.8125 v 5.625 H 46.75 Z"
           fill="#cce6ff"
           id="path40" />
      </g>
    </g>
  </g>
</svg>
