<?xml version="1.0" encoding="UTF-8" standalone="no"?>
<svg
   xmlns:dc="http://purl.org/dc/elements/1.1/"
   xmlns:cc="http://creativecommons.org/ns#"
   xmlns:rdf="http://www.w3.org/1999/02/22-rdf-syntax-ns#"
   xmlns:svg="http://www.w3.org/2000/svg"
   xmlns="http://www.w3.org/2000/svg"
   width="132"
   height="132"
   viewBox="0 0 132 132"
   version="1.1"
   id="svg8">
  <defs
     id="defs2">
    <clipPath
       id="clip0">
      <rect
         width="96"
         height="96"
         fill="#ffffff"
         transform="translate(10,22)"
         id="rect94"
         x="0"
         y="0" />
    </clipPath>
  </defs>
  <metadata
     id="metadata5">
    <rdf:RDF>
      <cc:Work
         rdf:about="">
        <dc:format>image/svg+xml</dc:format>
        <dc:type
           rdf:resource="http://purl.org/dc/dcmitype/StillImage" />
        <dc:title></dc:title>
      </cc:Work>
    </rdf:RDF>
  </metadata>
  <g
     id="layer1"
     transform="translate(0,-32.416659)">
    <g
       id="g138"
       transform="translate(-438,32.916659)">
      <rect
         x="512"
         y="3"
         width="40"
         height="40"
         fill="#cde8fb"
         id="rect2" />
      <rect
         x="456"
         y="112"
         width="16"
         height="16"
         fill="#cde8fb"
         id="rect6" />
      <path
         d="M 540.125,30.4375 C 540.125,25.7852 536.34,22 531.688,22 H 512 L 500.75,70 512,118 h 19.688 c 4.652,0 8.437,-3.785 8.437,-8.438 V 95.5 L 524.905,70 540.125,33.25 Z"
         fill="#327376"
         id="path44" />
      <path
         opacity="0.7"
         d="M 483.875,30.4375 C 483.875,25.7852 487.66,22 492.312,22 H 512 v 96 h -19.688 c -4.652,0 -8.437,-3.785 -8.437,-8.438 V 95.5 L 499.095,70 483.875,33.25 Z"
         fill="#327376"
         id="path46" />
      <path
         d="m 512,95.5 h 28.125 V 33.25 H 512 l -11.25,31.125 z"
         fill="#296063"
         id="path48" />
      <path
         d="M 483.875,33.25 H 512 V 95.5 h -28.125 z"
         fill="#588284"
         id="path50" />
      <path
         d="m 506.375,53.125 c 0,3.1069 -2.518,5.625 -5.625,5.625 -3.107,0 -5.625,-2.5181 -5.625,-5.625 0,-3.1069 2.518,-5.625 5.625,-5.625 3.107,0 5.625,2.5181 5.625,5.625 z"
         fill="#e6f7ff"
         id="path52" />
      <path
         d="m 506.375,75.625 c 0,3.1069 -2.518,5.625 -5.625,5.625 -3.107,0 -5.625,-2.5181 -5.625,-5.625 0,-3.1069 2.518,-5.625 5.625,-5.625 3.107,0 5.625,2.5181 5.625,5.625 z"
         fill="#e6f7ff"
         id="path54" />
      <path
         opacity="0.43"
         d="m 520.438,55.9375 h 5.624 v 16.875 h -5.624 z"
         fill="#cce6ff"
         id="path56" />
      <path
         d="m 528.875,53.125 c 0,3.1069 -2.518,5.625 -5.625,5.625 -3.107,0 -5.625,-2.5181 -5.625,-5.625 0,-3.1069 2.518,-5.625 5.625,-5.625 3.107,0 5.625,2.5181 5.625,5.625 z"
         fill="#cce6ff"
         id="path58" />
      <path
         d="m 528.875,75.625 c 0,3.1069 -2.518,5.625 -5.625,5.625 -3.107,0 -5.625,-2.5181 -5.625,-5.625 0,-3.1069 2.518,-5.625 5.625,-5.625 3.107,0 5.625,2.5181 5.625,5.625 z"
         fill="#cce6ff"
         id="path60" />
    </g>
  </g>
</svg>
